<svg width="14" height="14" viewBox="0 0 14 14" fill="none" xmlns="http://www.w3.org/2000/svg">
<path d="M12.203 4.40434C12.0782 4.22073 11.9091 4.06432 11.7049 3.95084L7.73972 1.74638C7.28205 1.49193 6.71817 1.49193 6.2605 1.74637L2.29528 3.95084C1.8376 4.20529 1.55566 4.67552 1.55566 5.18441V9.59334C1.55566 10.1022 1.8376 10.5725 2.29528 10.8269L6.2605 13.0314C6.71817 13.2858 7.28205 13.2858 7.73972 13.0314L11.7049 10.8269C12.1626 10.5725 12.4446 10.1022 12.4446 9.59334V7.38888M12.203 4.40434C12.358 4.63242 12.4446 4.90248 12.4446 5.18441V7.38888M12.203 4.40434L7.47256 7.25313M12.4446 7.38888L7.73972 10.1019" stroke="#409EFF" stroke-linecap="round" stroke-linejoin="round"/>
</svg>
